<?xml version="1.0" encoding="UTF-8" standalone="no"?>
<!DOCTYPE svg PUBLIC "-//W3C//DTD SVG 1.1//EN"
 "http://www.w3.org/Graphics/SVG/1.1/DTD/svg11.dtd">
<!-- Generated by graphviz version 2.44.1 (20200629.0846)
 -->
<!-- Title: maketree Pages: 1 -->
<svg width="278pt" height="66pt"
 viewBox="0.00 0.00 278.00 66.00" xmlns="http://www.w3.org/2000/svg" xmlns:xlink="http://www.w3.org/1999/xlink">
<g id="graph0" class="graph" transform="scale(1 1) rotate(0) translate(4 62)">
<title>maketree</title>
<polygon fill="white" stroke="transparent" points="-4,4 -4,-62 274,-62 274,4 -4,4"/>
<!-- Node1 -->
<g id="node1" class="node">
<title>Node1</title>
<g id="a_node1"><a xlink:title="make huffman tree inside the list.">
<polygon fill="#bfbfbf" stroke="black" points="0,-19.5 0,-38.5 57,-38.5 57,-19.5 0,-19.5"/>
<text text-anchor="middle" x="28.5" y="-26.5" font-family="Helvetica,sans-Serif" font-size="10.00">maketree</text>
</a>
</g>
</g>
<!-- Node2 -->
<g id="node2" class="node">
<title>Node2</title>
<g id="a_node2"><a xlink:href="../../de/d1e/huffman__encode_8c.html#a48cd94299615a2d6ee1ba7851c74cced" target="_top" xlink:title="when you found smallest node, seperate that node from list">
<polygon fill="white" stroke="black" points="93,-38.5 93,-57.5 178,-57.5 178,-38.5 93,-38.5"/>
<text text-anchor="middle" x="135.5" y="-45.5" font-family="Helvetica,sans-Serif" font-size="10.00">disconnectnode</text>
</a>
</g>
</g>
<!-- Node1&#45;&gt;Node2 -->
<g id="edge1" class="edge">
<title>Node1&#45;&gt;Node2</title>
<path fill="none" stroke="midnightblue" d="M57.09,-33.99C65.03,-35.43 73.97,-37.05 82.88,-38.66"/>
<polygon fill="midnightblue" stroke="midnightblue" points="82.4,-42.13 92.86,-40.47 83.64,-35.24 82.4,-42.13"/>
</g>
<!-- Node3 -->
<g id="node3" class="node">
<title>Node3</title>
<g id="a_node3"><a xlink:href="../../de/d1e/huffman__encode_8c.html#af3f59fc34c132bc107170222669262ef" target="_top" xlink:title="find node with the smallest quantity among the list">
<polygon fill="white" stroke="black" points="109,-0.5 109,-19.5 162,-19.5 162,-0.5 109,-0.5"/>
<text text-anchor="middle" x="135.5" y="-7.5" font-family="Helvetica,sans-Serif" font-size="10.00">smallest</text>
</a>
</g>
</g>
<!-- Node1&#45;&gt;Node3 -->
<g id="edge2" class="edge">
<title>Node1&#45;&gt;Node3</title>
<path fill="none" stroke="midnightblue" d="M57.09,-24.01C69.87,-21.69 85.22,-18.92 98.86,-16.45"/>
<polygon fill="midnightblue" stroke="midnightblue" points="99.68,-19.86 108.9,-14.63 98.43,-12.97 99.68,-19.86"/>
</g>
<!-- Node4 -->
<g id="node4" class="node">
<title>Node4</title>
<g id="a_node4"><a xlink:href="../../de/d1e/huffman__encode_8c.html#a916b66dc42028bc8c56a6efe3ff4c44f" target="_top" xlink:title="count leaf nodes of tree">
<polygon fill="white" stroke="black" points="214,-0.5 214,-19.5 270,-19.5 270,-0.5 214,-0.5"/>
<text text-anchor="middle" x="242" y="-7.5" font-family="Helvetica,sans-Serif" font-size="10.00">countleaf</text>
</a>
</g>
</g>
<!-- Node3&#45;&gt;Node4 -->
<g id="edge3" class="edge">
<title>Node3&#45;&gt;Node4</title>
<path fill="none" stroke="midnightblue" d="M162.06,-10C174.58,-10 189.9,-10 203.69,-10"/>
<polygon fill="midnightblue" stroke="midnightblue" points="203.87,-13.5 213.87,-10 203.87,-6.5 203.87,-13.5"/>
</g>
</g>
</svg>
