<?xml version="1.0" encoding="UTF-8" standalone="no"?>
<!DOCTYPE svg PUBLIC "-//W3C//DTD SVG 1.1//EN"
 "http://www.w3.org/Graphics/SVG/1.1/DTD/svg11.dtd">
<!-- Generated by graphviz version 2.44.1 (20200629.0846)
 -->
<!-- Title: nodelist Pages: 1 -->
<svg width="113pt" height="174pt"
 viewBox="0.00 0.00 113.00 174.00" xmlns="http://www.w3.org/2000/svg" xmlns:xlink="http://www.w3.org/1999/xlink">
<g id="graph0" class="graph" transform="scale(1 1) rotate(0) translate(4 170)">
<title>nodelist</title>
<polygon fill="white" stroke="transparent" points="-4,4 -4,-170 109,-170 109,4 -4,4"/>
<!-- Node1 -->
<g id="node1" class="node">
<title>Node1</title>
<g id="a_node1"><a xlink:title="struct to manage linked list of characters">
<polygon fill="#bfbfbf" stroke="black" points="0,-0.5 0,-19.5 50,-19.5 50,-0.5 0,-0.5"/>
<text text-anchor="middle" x="25" y="-7.5" font-family="Helvetica,sans-Serif" font-size="10.00">nodelist</text>
</a>
</g>
</g>
<!-- Node2 -->
<g id="node2" class="node">
<title>Node2</title>
<g id="a_node2"><a xlink:href="../../d5/da1/structnode.html" target="_top" xlink:title="Node, the basic data structure in the tree.">
<polygon fill="white" stroke="black" points="6,-112.5 6,-131.5 44,-131.5 44,-112.5 6,-112.5"/>
<text text-anchor="middle" x="25" y="-119.5" font-family="Helvetica,sans-Serif" font-size="10.00">node</text>
</a>
</g>
</g>
<!-- Node2&#45;&gt;Node1 -->
<g id="edge1" class="edge">
<title>Node2&#45;&gt;Node1</title>
<path fill="none" stroke="#9a32cd" stroke-dasharray="5,2" d="M25,-102.35C25,-78.25 25,-37.31 25,-19.59"/>
<polygon fill="#9a32cd" stroke="#9a32cd" points="21.5,-102.37 25,-112.37 28.5,-102.37 21.5,-102.37"/>
<text text-anchor="middle" x="37.5" y="-52" font-family="Helvetica,sans-Serif" font-size="10.00"> head</text>
<text text-anchor="middle" x="37.5" y="-41" font-family="Helvetica,sans-Serif" font-size="10.00">tail</text>
</g>
<!-- Node2&#45;&gt;Node2 -->
<g id="edge2" class="edge">
<title>Node2&#45;&gt;Node2</title>
<path fill="none" stroke="#9a32cd" stroke-dasharray="5,2" d="M44.61,-135.2C53.87,-136.74 62,-132.34 62,-122 62,-108.22 47.54,-104.99 35.23,-112.31"/>
<polygon fill="#9a32cd" stroke="#9a32cd" points="45.82,-131.92 35.23,-131.69 43.36,-138.48 45.82,-131.92"/>
<text text-anchor="middle" x="83.5" y="-158" font-family="Helvetica,sans-Serif" font-size="10.00"> left</text>
<text text-anchor="middle" x="83.5" y="-147" font-family="Helvetica,sans-Serif" font-size="10.00">leftNode</text>
<text text-anchor="middle" x="83.5" y="-136" font-family="Helvetica,sans-Serif" font-size="10.00">link</text>
<text text-anchor="middle" x="83.5" y="-125" font-family="Helvetica,sans-Serif" font-size="10.00">next</text>
<text text-anchor="middle" x="83.5" y="-114" font-family="Helvetica,sans-Serif" font-size="10.00">par</text>
<text text-anchor="middle" x="83.5" y="-103" font-family="Helvetica,sans-Serif" font-size="10.00">pre</text>
<text text-anchor="middle" x="83.5" y="-92" font-family="Helvetica,sans-Serif" font-size="10.00">right</text>
<text text-anchor="middle" x="83.5" y="-81" font-family="Helvetica,sans-Serif" font-size="10.00">rightNode</text>
</g>
</g>
</svg>
